<svg width="100" height="100" viewBox="0 0 100 100" fill="none" xmlns="http://www.w3.org/2000/svg">
<path d="M38 11C54.7313 11 69.18 21.1415 72.3311 35.3018C86.0552 37.0697 97 47.1611 97 60C97 66.915 93.6679 72.9712 88.6094 77.373L92.249 89.8525L92.9336 92.1992L90.8008 91.0059L77.4668 83.5439C74.5602 84.3831 71.4102 85 68 85C56.6029 85 46.5361 79.3163 41.8252 70.7891C40.5742 70.9152 39.3046 71 38 71C34.2281 71 30.4978 70.4466 27.0869 69.4238L10.8857 79.46L8.53809 80.9131L9.41016 78.2939L14.4971 63.0078C7.53748 57.5907 3 49.9213 3 41C3 24.0132 19.1068 11 38 11ZM68 41C54.8926 41 45 49.7764 45 60C45 70.2236 54.8926 79 68 79C71.2656 79 74.3541 78.4554 77.0498 77.5518H77.0508L77.8945 77.2705L78.3145 77.1299L78.7002 77.3467L83.0654 79.7969L81.9307 75.9053L81.7363 75.2393L82.292 74.8242L83.4092 73.9883L83.4121 73.9854L83.8535 73.6504C88.3539 70.1451 91 65.3708 91 60C91 49.7764 81.1074 41 68 41ZM38 17C21.6915 17 9 27.9921 9 41C9 48.4976 12.9443 54.9609 19.6836 59.5146H19.6846L20.9346 60.3584L21.5635 60.7832L21.3242 61.5039L19.4619 67.0947L25.8408 63.1494L26.2461 62.8994L27.5938 63.3682L27.5996 63.3701L28.1709 63.5635C31.0672 64.5029 34.5263 65 38 65C38.5355 65 39.0681 64.9855 39.5967 64.9609C39.2166 63.3671 39 61.7093 39 60C39 46.4091 51.2506 35.9035 66.1055 35.0713C62.9548 24.866 51.733 17 38 17ZM59 51C61.1538 51 63 52.8462 63 55C63 57.1538 61.1538 59 59 59C56.8462 59 55 57.1538 55 55C55 52.8462 56.8462 51 59 51ZM77 51C79.1538 51 81 52.8462 81 55C81 57.1538 79.1538 59 77 59C74.8462 59 73 57.1538 73 55C73 52.8462 74.8462 51 77 51ZM26 27C28.7554 27 31 29.2446 31 32C31 34.7554 28.7554 37 26 37C23.2446 37 21 34.7554 21 32C21 29.2446 23.2446 27 26 27ZM50 27C52.7554 27 55 29.2446 55 32C55 34.7554 52.7554 37 50 37C47.2446 37 45 34.7554 45 32C45 29.2446 47.2446 27 50 27Z" fill="black" stroke="black" stroke-width="2"/>
</svg>
